<mxfile host="Electron" modified="2024-09-16T16:34:15.248Z" agent="Mozilla/5.0 (Windows NT 10.0; Win64; x64) AppleWebKit/537.36 (KHTML, like Gecko) draw.io/22.0.3 Chrome/114.0.5735.289 Electron/25.8.4 Safari/537.36" etag="7hZmQdJKFEtKQXx5LHXQ" version="22.0.3" type="device">
  <diagram name="Page-1" id="dFOu722KGpcHypL_hizC">
    <mxGraphModel dx="1084" dy="776" grid="1" gridSize="10" guides="1" tooltips="1" connect="1" arrows="1" fold="1" page="1" pageScale="1" pageWidth="600" pageHeight="150" math="0" shadow="0">
      <root>
        <mxCell id="0" />
        <mxCell id="1" parent="0" />
        <mxCell id="OtSE3NL9og8UfRKNNKVj-1" value="CAIRO" style="rounded=0;whiteSpace=wrap;html=1;fillColor=#dae8fc;strokeColor=default;" vertex="1" parent="1">
          <mxGeometry x="110" y="255" width="120" height="40" as="geometry" />
        </mxCell>
        <mxCell id="OtSE3NL9og8UfRKNNKVj-2" value="OpenGL" style="rounded=0;whiteSpace=wrap;html=1;fillColor=#dae8fc;strokeColor=default;" vertex="1" parent="1">
          <mxGeometry x="240" y="255" width="120" height="40" as="geometry" />
        </mxCell>
        <mxCell id="OtSE3NL9og8UfRKNNKVj-3" value="Wayland" style="rounded=0;whiteSpace=wrap;html=1;fillColor=#dae8fc;strokeColor=default;" vertex="1" parent="1">
          <mxGeometry x="370" y="255" width="120" height="40" as="geometry" />
        </mxCell>
        <mxCell id="OtSE3NL9og8UfRKNNKVj-4" value="PANGO" style="rounded=0;whiteSpace=wrap;html=1;fillColor=#d5e8d4;strokeColor=default;" vertex="1" parent="1">
          <mxGeometry x="110" y="205" width="90" height="40" as="geometry" />
        </mxCell>
        <mxCell id="OtSE3NL9og8UfRKNNKVj-5" value="GSK" style="rounded=0;whiteSpace=wrap;html=1;fillColor=#d5e8d4;strokeColor=default;" vertex="1" parent="1">
          <mxGeometry x="210" y="205" width="90" height="40" as="geometry" />
        </mxCell>
        <mxCell id="OtSE3NL9og8UfRKNNKVj-6" value="GDK" style="rounded=0;whiteSpace=wrap;html=1;fillColor=#d5e8d4;strokeColor=default;" vertex="1" parent="1">
          <mxGeometry x="310" y="205" width="90" height="40" as="geometry" />
        </mxCell>
        <mxCell id="OtSE3NL9og8UfRKNNKVj-7" value="GLIB" style="rounded=0;whiteSpace=wrap;html=1;fillColor=#d5e8d4;strokeColor=default;" vertex="1" parent="1">
          <mxGeometry x="410" y="205" width="80" height="40" as="geometry" />
        </mxCell>
        <mxCell id="OtSE3NL9og8UfRKNNKVj-8" value="GTK 4" style="rounded=0;whiteSpace=wrap;html=1;strokeColor=default;" vertex="1" parent="1">
          <mxGeometry x="110" y="155" width="380" height="40" as="geometry" />
        </mxCell>
      </root>
    </mxGraphModel>
  </diagram>
</mxfile>
